<svg width="50" height="50" viewBox="0 0 50 50" fill="none" xmlns="http://www.w3.org/2000/svg">
<path d="M18.75 45.8333C19.9006 45.8333 20.8333 44.9006 20.8333 43.75C20.8333 42.5995 19.9006 41.6667 18.75 41.6667C17.5994 41.6667 16.6667 42.5995 16.6667 43.75C16.6667 44.9006 17.5994 45.8333 18.75 45.8333Z" stroke="url(#paint0_linear_5_234)" stroke-width="2" stroke-linecap="round" stroke-linejoin="round"/>
<path d="M41.6667 45.8333C42.8173 45.8333 43.75 44.9006 43.75 43.75C43.75 42.5995 42.8173 41.6667 41.6667 41.6667C40.5161 41.6667 39.5833 42.5995 39.5833 43.75C39.5833 44.9006 40.5161 45.8333 41.6667 45.8333Z" stroke="url(#paint1_linear_5_234)" stroke-width="2" stroke-linecap="round" stroke-linejoin="round"/>
<path d="M2.08334 2.08337H10.4167L16 29.9792C16.1906 30.9383 16.7123 31.8 17.474 32.4132C18.2359 33.0263 19.189 33.3522 20.1667 33.3333H40.4167C41.3944 33.3522 42.3476 33.0263 43.1093 32.4132C43.871 31.8 44.3929 30.9383 44.5833 29.9792L47.9167 12.5H12.5" stroke="url(#paint2_linear_5_234)" stroke-width="2" stroke-linecap="round" stroke-linejoin="round"/>
<defs>
<linearGradient id="paint0_linear_5_234" x1="20.1874" y1="42.2292" x2="17.4583" y2="45.375" gradientUnits="userSpaceOnUse">
<stop stop-color="#EB3850"/>
<stop offset="1" stop-color="#EB3850"/>
</linearGradient>
<linearGradient id="paint1_linear_5_234" x1="43.1041" y1="42.2292" x2="40.375" y2="45.375" gradientUnits="userSpaceOnUse">
<stop stop-color="#EB3850"/>
<stop offset="1" stop-color="#EB3850"/>
</linearGradient>
<linearGradient id="paint2_linear_5_234" x1="40.8126" y1="6.30223" x2="22.692" y2="36.9359" gradientUnits="userSpaceOnUse">
<stop stop-color="#EB3850"/>
<stop offset="1" stop-color="#EB3850"/>
</linearGradient>
</defs>
</svg>
